<svg width="48" height="48" viewBox="0 0 48 48" fill="none" xmlns="http://www.w3.org/2000/svg">
<path d="M17.4456 23.3622C17.4456 23.8038 17.0924 24.157 16.6509 24.157H13.668C13.2265 24.157 12.8733 23.8038 12.8733 23.3622V20.3794C12.8733 19.9379 13.2265 19.5846 13.668 19.5846H16.6509C17.0924 19.5846 17.4456 19.9379 17.4456 20.3794V23.3622ZM23.6762 20.3892C23.6762 19.9477 23.323 19.5944 22.8814 19.5944H19.8986C19.4571 19.5944 19.1038 19.9477 19.1038 20.3892V23.372C19.1038 23.8136 19.4571 24.1668 19.8986 24.1668H22.8814C23.323 24.1668 23.6762 23.8136 23.6762 23.372V20.3892ZM29.9068 20.3892C29.9068 19.9477 29.5536 19.5944 29.112 19.5944H26.1292C25.6877 19.5944 25.3344 19.9477 25.3344 20.3892V23.372C25.3344 23.8136 25.6877 24.1668 26.1292 24.1668H29.112C29.5536 24.1668 29.9068 23.8136 29.9068 23.372V20.3892ZM17.4456 26.453C17.4456 26.0114 17.0924 25.6582 16.6509 25.6582H13.668C13.2265 25.6582 12.8733 26.0114 12.8733 26.453V29.4358C12.8733 29.8773 13.2265 30.2306 13.668 30.2306H16.6509C17.0924 30.2306 17.4456 29.8773 17.4456 29.4358V26.453ZM23.6762 26.453C23.6762 26.0114 23.323 25.6582 22.8814 25.6582H19.8986C19.4571 25.6582 19.1038 26.0114 19.1038 26.453V29.4358C19.1038 29.8773 19.4571 30.2306 19.8986 30.2306H22.8814C23.323 30.2306 23.6762 29.8773 23.6762 29.4358V26.453ZM29.112 25.6582H26.1292C25.6877 25.6582 25.3344 26.0114 25.3344 26.453V29.4358C25.3344 29.8773 25.6877 30.2306 26.1292 30.2306H29.112C29.5536 30.2306 29.9068 29.8773 29.9068 29.4358V26.453C29.9068 26.0114 29.5536 25.6582 29.112 25.6582ZM10.4105 31.722H7.43745C6.99591 31.722 6.64268 32.0752 6.64268 32.5168V35.4996C6.64268 35.9411 6.99591 36.2944 7.43745 36.2944H10.4203C10.8618 36.2944 11.215 35.9411 11.215 35.4996V32.5168C11.215 32.0752 10.852 31.722 10.4105 31.722ZM11.215 26.453C11.215 26.0114 10.8618 25.6582 10.4203 25.6582H7.43745C6.99591 25.6582 6.64268 26.0114 6.64268 26.453V29.4358C6.64268 29.8773 6.99591 30.2306 7.43745 30.2306H10.4203C10.8618 30.2306 11.215 29.8773 11.215 29.4358V26.453V26.453ZM22.8814 31.722H19.8986C19.4571 31.722 19.1038 32.0752 19.1038 32.5168V35.4996C19.1038 35.9411 19.4571 36.2944 19.8986 36.2944H22.8814C23.323 36.2944 23.6762 35.9411 23.6762 35.4996V32.5168C23.6762 32.0752 23.323 31.722 22.8814 31.722ZM16.6509 31.722H13.668C13.2265 31.722 12.8733 32.0752 12.8733 32.5168V35.4996C12.8733 35.9411 13.2265 36.2944 13.668 36.2944H16.6509C17.0924 36.2944 17.4456 35.9411 17.4456 35.4996V32.5168C17.4456 32.0752 17.0924 31.722 16.6509 31.722ZM35.3426 24.1668C35.7841 24.1668 36.1374 23.8136 36.1374 23.372V20.3892C36.1374 19.9477 35.7841 19.5944 35.3426 19.5944H32.3598C31.9182 19.5944 31.565 19.9477 31.565 20.3892V23.372C31.565 23.8136 31.9182 24.1668 32.3598 24.1668H35.3426ZM4.68029 42.7702H27.3164C26.9534 41.632 26.7473 40.4154 26.7375 39.1594H4.68029C4.09158 39.1594 3.62061 38.6787 3.62061 38.0997V16.7784H39.1104V26.6983C40.3663 26.7081 41.583 26.8945 42.7212 27.2576V9.31153C42.7212 6.73099 40.6214 4.63123 38.0409 4.63123H32.8013V1.74652C32.8013 0.804577 32.036 0.0392456 31.094 0.0392456H28.435C27.493 0.0392456 26.7277 0.804577 26.7277 1.74652V4.64104H15.9935V1.74652C15.9935 0.804577 15.2281 0.0392456 14.2862 0.0392456H11.6271C10.6852 0.0392456 9.91987 0.804577 9.91987 1.74652V4.64104H4.68029C2.09975 4.64104 0 6.7408 0 9.32134V38.0997C0 40.6705 2.09975 42.7702 4.68029 42.7702ZM48 39.0221C48 43.9575 43.9967 47.9607 39.0613 47.9607C34.1259 47.9607 30.1226 43.9575 30.1226 39.0221C30.1226 34.0867 34.1259 30.0834 39.0613 30.0834C43.9967 30.0834 48 34.0867 48 39.0221ZM43.5748 36.7065C43.5748 36.4219 43.4669 36.1472 43.2608 35.9509C42.8389 35.529 42.1619 35.529 41.74 35.9509L37.8545 39.8365L36.363 38.345C35.9411 37.9231 35.2641 37.9231 34.8422 38.345C34.6361 38.5511 34.5282 38.816 34.5282 39.1006C34.5282 39.3851 34.6361 39.6598 34.8422 39.8561L37.0891 42.103C37.511 42.5249 38.1881 42.5249 38.61 42.103L43.251 37.462C43.4669 37.2657 43.5748 36.991 43.5748 36.7065Z" fill="#FFFF00"/>
</svg>
