<svg width="40" height="40" viewBox="0 0 40 40" fill="none" xmlns="http://www.w3.org/2000/svg">
<path d="M30.6074 9.39264C27.773 6.55828 24.0061 5 20 5C15.9939 5 12.227 6.55828 9.39264 9.39264C6.55828 12.227 5 15.9939 5 20C5 24.0061 6.55828 27.773 9.39264 30.6074C12.227 33.4417 15.9939 35 20 35C24.0061 35 27.773 33.4417 30.6074 30.6074C33.4417 27.773 35 24.0061 35 20C35 15.9939 33.4417 12.227 30.6074 9.39264ZM20 33.3436C12.6442 33.3436 6.65644 27.3558 6.65644 20C6.65644 12.6442 12.6442 6.65644 20 6.65644C27.3558 6.65644 33.3436 12.6442 33.3436 20C33.3436 27.3558 27.3558 33.3436 20 33.3436Z" fill="#FFFF00"/>
<path d="M31.9061 5.7049L20.6298 20.6831L16.5939 15.3286C15.8833 14.3858 14.7436 14.3858 14.033 15.3286C13.3223 16.2714 13.3223 17.7835 14.033 18.7263L19.356 25.7884C19.7046 26.251 20.1739 26.5 20.6298 26.5C21.0857 26.5 21.555 26.2687 21.9036 25.7884L34.467 9.12035C35.1777 8.17754 35.1777 6.66549 34.467 5.72268C33.7698 4.76209 32.6167 4.76209 31.9061 5.7049Z" fill="white"/>
</svg>
