<svg width="48" height="48" viewBox="0 0 48 48" fill="none" xmlns="http://www.w3.org/2000/svg">
<path d="M0 36.6705V12.4845C0 10.5857 1.54649 9.03916 3.44535 9.03916H19.5759V13.7374H4.70799V35.3785H37.9967V26.2463H42.6949V36.6607C42.6949 38.5595 41.1484 40.106 39.2496 40.106H29.5791V43.4144C29.5791 44.0995 29.0212 44.6476 28.3458 44.6476H14.3491C13.6639 44.6476 13.1158 44.0897 13.1158 43.4144V40.106H3.45514C1.54649 40.1158 0 38.5693 0 36.6705ZM26.6917 26.2953V22.2235H26.1338C24.7341 22.2235 23.6085 21.0881 23.6085 19.6982V5.87766C23.6085 4.47798 24.7439 3.35237 26.1338 3.35237H45.4747C46.8744 3.35237 48 4.48777 48 5.87766V19.6982C48 21.0979 46.8646 22.2235 45.4747 22.2235H31.6542L27.3279 26.5498C27.0832 26.7847 26.6917 26.6281 26.6917 26.2953ZM35.031 18.4649H33.1713V20.3246H35.031V18.4649ZM38.4274 18.4649H36.5677V20.3246H38.4274V18.4649ZM43.3409 7.09136H45.2007V5.23165H43.3409V7.09136ZM43.3409 20.3246H45.2007V18.4649H43.3409V20.3246ZM39.9543 7.09136H41.814V5.23165H39.9543V7.09136ZM39.9543 20.3246H41.814V18.4649H39.9543V20.3246ZM36.5579 7.09136H38.4176V5.23165H36.5579V7.09136ZM33.1713 7.09136H35.031V5.23165H33.1713V7.09136ZM32.8483 15.6754C32.8483 16.0277 33.23 16.2431 33.5334 16.0669L38.8679 12.9837C39.1713 12.8075 39.1713 12.3768 38.8679 12.2007L33.5334 9.11746C33.23 8.94128 32.8483 9.15661 32.8483 9.50898V15.6754ZM29.7847 7.09136H31.6444V5.23165H29.7847V7.09136ZM29.7847 20.3246H31.6444V18.4649H29.7847V20.3246ZM26.398 7.09136H28.2577V5.23165H26.398V7.09136ZM28.2577 20.3246V18.4649H26.398V20.3246H28.2577Z" fill="#FFFF00"/>
</svg>
