<svg width="283" height="116" viewBox="0 0 283 116" fill="none" xmlns="http://www.w3.org/2000/svg">
<path d="M3.03409 11.0909H12.1364L21.75 34.5455H22.1591L31.7727 11.0909H40.875V46H33.7159V23.2784H33.4261L24.392 45.8295H19.517L10.483 23.1932H10.1932V46H3.03409V11.0909ZM52.973 46H45.0639L57.1151 11.0909H66.6264L78.6605 46H70.7514L62.0071 19.0682H61.7344L52.973 46ZM52.4787 32.2784H71.1605V38.0398H52.4787V32.2784ZM82.8622 46V11.0909H96.6349C99.2713 11.0909 101.521 11.5625 103.385 12.5057C105.26 13.4375 106.686 14.7614 107.663 16.4773C108.652 18.1818 109.146 20.1875 109.146 22.4943C109.146 24.8125 108.646 26.8068 107.646 28.4773C106.646 30.1364 105.197 31.4091 103.3 32.2955C101.413 33.1818 99.1293 33.625 96.4474 33.625H87.2259V27.6932H95.2543C96.6634 27.6932 97.8338 27.5 98.7656 27.1136C99.6974 26.7273 100.391 26.1477 100.845 25.375C101.311 24.6023 101.544 23.642 101.544 22.4943C101.544 21.3352 101.311 20.358 100.845 19.5625C100.391 18.767 99.6918 18.1648 98.7486 17.7557C97.8168 17.3352 96.6406 17.125 95.2202 17.125H90.2429V46H82.8622ZM101.714 30.1136L110.391 46H102.243L93.7543 30.1136H101.714ZM120.379 46H112.47L124.521 11.0909H134.033L146.067 46H138.158L129.413 19.0682H129.141L120.379 46ZM119.885 32.2784H138.567V38.0398H119.885V32.2784ZM144.673 17.1761V11.0909H173.344V17.1761H162.656V46H155.361V17.1761H144.673ZM208.551 28.5455C208.551 32.3523 207.83 35.5909 206.386 38.2614C204.955 40.9318 203 42.9716 200.523 44.3807C198.057 45.7784 195.284 46.4773 192.205 46.4773C189.102 46.4773 186.318 45.7727 183.852 44.3636C181.386 42.9545 179.438 40.9148 178.006 38.2443C176.574 35.5739 175.858 32.3409 175.858 28.5455C175.858 24.7386 176.574 21.5 178.006 18.8295C179.438 16.1591 181.386 14.125 183.852 12.7273C186.318 11.3182 189.102 10.6136 192.205 10.6136C195.284 10.6136 198.057 11.3182 200.523 12.7273C203 14.125 204.955 16.1591 206.386 18.8295C207.83 21.5 208.551 24.7386 208.551 28.5455ZM201.068 28.5455C201.068 26.0795 200.699 24 199.96 22.3068C199.233 20.6136 198.205 19.3295 196.875 18.4545C195.545 17.5795 193.989 17.142 192.205 17.142C190.42 17.142 188.864 17.5795 187.534 18.4545C186.205 19.3295 185.17 20.6136 184.432 22.3068C183.705 24 183.341 26.0795 183.341 28.5455C183.341 31.0114 183.705 33.0909 184.432 34.7841C185.17 36.4773 186.205 37.7614 187.534 38.6364C188.864 39.5114 190.42 39.9489 192.205 39.9489C193.989 39.9489 195.545 39.5114 196.875 38.6364C198.205 37.7614 199.233 36.4773 199.96 34.7841C200.699 33.0909 201.068 31.0114 201.068 28.5455ZM243.217 11.0909V46H236.842L221.655 24.0284H221.399V46H214.018V11.0909H220.496L235.564 33.0455H235.871V11.0909H243.217ZM255.332 46H247.423L259.474 11.0909H268.986L281.02 46H273.111L264.366 19.0682H264.094L255.332 46ZM254.838 32.2784H273.52V38.0398H254.838V32.2784ZM3.03409 104V69.0909H26.1477V75.1761H10.4148V83.4943H24.6136V89.5795H10.4148V104H3.03409ZM31.1122 104V69.0909H44.8849C47.5213 69.0909 49.7713 69.5625 51.6349 70.5057C53.5099 71.4375 54.9361 72.7614 55.9134 74.4773C56.902 76.1818 57.3963 78.1875 57.3963 80.4943C57.3963 82.8125 56.8963 84.8068 55.8963 86.4773C54.8963 88.1364 53.4474 89.4091 51.5497 90.2955C49.6634 91.1818 47.3793 91.625 44.6974 91.625H35.4759V85.6932H43.5043C44.9134 85.6932 46.0838 85.5 47.0156 85.1136C47.9474 84.7273 48.6406 84.1477 49.0952 83.375C49.5611 82.6023 49.794 81.642 49.794 80.4943C49.794 79.3352 49.5611 78.358 49.0952 77.5625C48.6406 76.767 47.9418 76.1648 46.9986 75.7557C46.0668 75.3352 44.8906 75.125 43.4702 75.125H38.4929V104H31.1122ZM49.9645 88.1136L58.6406 104H50.4929L42.0043 88.1136H49.9645ZM94.6918 86.5455C94.6918 90.3523 93.9702 93.5909 92.527 96.2614C91.0952 98.9318 89.1406 100.972 86.6634 102.381C84.1974 103.778 81.4247 104.477 78.3452 104.477C75.2429 104.477 72.4588 103.773 69.9929 102.364C67.527 100.955 65.5781 98.9148 64.1463 96.2443C62.7145 93.5739 61.9986 90.3409 61.9986 86.5455C61.9986 82.7386 62.7145 79.5 64.1463 76.8295C65.5781 74.1591 67.527 72.125 69.9929 70.7273C72.4588 69.3182 75.2429 68.6136 78.3452 68.6136C81.4247 68.6136 84.1974 69.3182 86.6634 70.7273C89.1406 72.125 91.0952 74.1591 92.527 76.8295C93.9702 79.5 94.6918 82.7386 94.6918 86.5455ZM87.2088 86.5455C87.2088 84.0795 86.8395 82 86.1009 80.3068C85.3736 78.6136 84.3452 77.3295 83.0156 76.4545C81.6861 75.5795 80.1293 75.142 78.3452 75.142C76.5611 75.142 75.0043 75.5795 73.6747 76.4545C72.3452 77.3295 71.3111 78.6136 70.5724 80.3068C69.8452 82 69.4815 84.0795 69.4815 86.5455C69.4815 89.0114 69.8452 91.0909 70.5724 92.7841C71.3111 94.4773 72.3452 95.7614 73.6747 96.6364C75.0043 97.5114 76.5611 97.9489 78.3452 97.9489C80.1293 97.9489 81.6861 97.5114 83.0156 96.6364C84.3452 95.7614 85.3736 94.4773 86.1009 92.7841C86.8395 91.0909 87.2088 89.0114 87.2088 86.5455ZM129.358 69.0909V104H122.983L107.795 82.0284H107.54V104H100.159V69.0909H106.636L121.705 91.0455H122.011V69.0909H129.358ZM134.126 75.1761V69.0909H162.797V75.1761H152.109V104H144.814V75.1761H134.126ZM178.628 104V69.0909H202.151V75.1761H186.009V83.4943H200.94V89.5795H186.009V97.9148H202.219V104H178.628ZM237.217 69.0909V104H230.842L215.655 82.0284H215.399V104H208.018V69.0909H214.496L229.564 91.0455H229.871V69.0909H237.217ZM255.69 104H243.315V69.0909H255.793C259.304 69.0909 262.327 69.7898 264.861 71.1875C267.395 72.5739 269.344 74.5682 270.707 77.1705C272.082 79.7727 272.77 82.8864 272.77 86.5114C272.77 90.1477 272.082 93.2727 270.707 95.8864C269.344 98.5 267.384 100.506 264.827 101.903C262.281 103.301 259.236 104 255.69 104ZM250.696 97.6761H255.384C257.565 97.6761 259.401 97.2898 260.889 96.517C262.389 95.733 263.514 94.5227 264.264 92.8864C265.026 91.2386 265.406 89.1136 265.406 86.5114C265.406 83.9318 265.026 81.8239 264.264 80.1875C263.514 78.5511 262.395 77.3466 260.906 76.5739C259.418 75.8011 257.582 75.4148 255.401 75.4148H250.696V97.6761Z" fill="#FFFF00"/>
</svg>
